<svg width="58" height="38" viewBox="0 0 58 38" fill="none" xmlns="http://www.w3.org/2000/svg">
<path d="M2 4.62385C2 9.48971 3.24326 14.2567 4.4759 19.0155M4.4759 19.0155C5.31989 22.2739 6.1589 25.5284 6.59046 28.8082C6.73995 29.9444 6.92231 34.8773 6.11353 31.1929C5.24982 27.2582 5.22326 23.1457 4.50389 19.1702C4.49453 19.1185 4.4852 19.067 4.4759 19.0155ZM4.4759 19.0155C3.43632 13.2642 2.76492 9.09864 6.07378 3.82896C7.37036 1.76404 7.59654 1.50843 9.94885 2.75587C13.8484 4.82379 15.8219 7.34643 16.2284 11.7778C16.4052 13.7043 16.5246 15.8595 14.7182 17.0638C13.4203 17.9291 11.7103 18.3491 10.3065 19.0113C9.86744 19.2184 6.06178 21.3444 6.33212 21.3959C9.56618 22.0119 13.393 20.4339 16.3874 22.2305C18.5112 23.5048 19.932 25.2521 20.1631 27.7947C20.5472 32.0196 16.8583 33.9513 13.5854 35.6442C11.4661 36.7404 5.93468 36.516 5.93468 33.2397M23.8196 18.2164C25.4291 21.1778 25.2504 24.2382 25.2504 27.5165M25.9658 10.347L24.1773 9.63162M33.1198 4.26614C34.31 10.6141 33.695 16.9424 34.3717 23.3036C34.471 24.2368 34.8343 27.8372 35.6236 28.2319M29.5427 16.0702C32.8341 16.0702 37.0847 16.7755 40.2737 15.7125M43.8506 15.7125C45.5429 20.2956 45.6391 24.2237 45.6391 29.0666C45.6391 31.4322 45.6486 28.2905 45.7981 27.5165C46.263 25.1099 46.982 22.4106 48.1232 20.2235C49.0731 18.4027 50.3501 15.3548 52.4354 15.3548C54.6288 15.3548 55.5295 17.7158 56.0124 19.6472" stroke="currentColor" stroke-width="3" stroke-linecap="round"/>
</svg>
